<?xml version="1.0" ?><svg viewBox="0 0 512 512" xmlns="http://www.w3.org/2000/svg"><g id="Whey_protein"><path d="M297.4323,448.44A12.7148,12.7148,0,0,0,310.0931,460H414.3758a12.7148,12.7148,0,0,0,12.6608-11.56l13.63-149.94H283.8024Z"/><path d="M447.1992,222h-4.2148l-14.0885-42.2671A12.773,12.773,0,0,0,416.7789,171H307.69a12.7732,12.7732,0,0,0-12.1171,8.7329L281.4844,222H277.222a12.7373,12.7373,0,0,0-12.7376,12.737v25.526A12.7373,12.7373,0,0,0,277.222,273H447.1992a12.7845,12.7845,0,0,0,12.7852-12.7848v-25.43A12.7845,12.7845,0,0,0,447.1992,222Z"/><path d="M52.0156,379.0954v4.25a42.6425,42.6425,0,0,0,42.67,42.67H269.87l-4.333-46.92Z"/><path d="M257.7151,292.99a38.2124,38.2124,0,0,1-18.6995-32.7248v-25.5a38.4056,38.4056,0,0,1,9.7741-25.5851H52.0156V353.5954H263.2414Zm-54.0588-5.8651-21.25,42.5a12.7822,12.7822,0,0,1-11.3907,7.0552,12.2126,12.2126,0,0,1-5.6944-1.36,12.6965,12.6965,0,0,1-5.7815-17.0846l12.0714-24.0551H149.7656A12.7752,12.7752,0,0,1,138.29,275.7356l21.25-42.5a12.7732,12.7732,0,1,1,22.8666,11.39l-12.0714,24.0552h21.9307a12.7753,12.7753,0,0,1,11.3907,18.4448Z"/><path d="M271.4011,171.6952a38.2108,38.2108,0,0,1,36.2951-26.18H340.76a72.0535,72.0535,0,0,0-14.1092-12.75H83.295a72.1234,72.1234,0,0,0-30.7689,50.9149h214.88Z"/><path d="M332.4844,77.5052A25.506,25.506,0,0,0,306.9782,52h-203.99A25.5043,25.5043,0,0,0,77.4844,77.5052V107.25h255Z"/></g></svg>