<svg viewBox="0 0 6.35 6.35" xmlns="http://www.w3.org/2000/svg"><path d="M1.586.794v.264H.793a.265.265 0 0 0-.264.265v4.232c0 .146.117.265.264.266h4.762a.265.265 0 0 0 .266-.266V1.323a.265.265 0 0 0-.266-.265h-.793V.794c-.004-.355-.533-.351-.53 0v.264H2.116V.794c0-.353-.529-.353-.53 0zm-.528.793h.528v.266c0 .354.529.349.529 0v-.266h2.118v.266c0 .357.53.349.53 0v-.266h.529v.795H1.058zm0 1.322h4.234V5.29H1.058zm.528.265c-.33 0-.351.53 0 .53h.529c.36 0 .369-.528 0-.53zm1.324 0c-.352.002-.36.53 0 .53h.53c.354 0 .375-.528 0-.53zm1.323 0c-.348.002-.352.53 0 .53h.53c.35 0 .37-.528 0-.53zm-2.647 1.06c-.346 0-.346.528 0 .528h.529c.347.001.359-.528 0-.529zm1.324 0c-.365 0-.359.528 0 .528h.53c.34.001.345-.529 0-.529zm1.323 0c-.353 0-.353.528 0 .528h.53c.35.001.363-.528 0-.529z" style="line-height:normal;font-variant-ligatures:normal;font-variant-position:normal;font-variant-caps:normal;font-variant-numeric:normal;font-variant-alternates:normal;font-variant-east-asian:normal;font-feature-settings:normal;font-variation-settings:normal;text-indent:0;text-align:start;text-decoration-line:none;text-decoration-style:solid;text-decoration-color:#000;text-transform:none;text-orientation:mixed;white-space:normal;shape-padding:0;shape-margin:0;inline-size:0;isolation:auto;mix-blend-mode:normal;solid-color:#000;solid-opacity:1" color="#000000" font-style="normal" font-variant="normal" font-weight="400" font-stretch="normal" font-size="medium" font-family="sans-serif" text-decoration="none" letter-spacing="normal" word-spacing="normal" writing-mode="lr-tb" direction="ltr" dominant-baseline="auto" baseline-shift="baseline" text-anchor="start" clip-rule="nonzero" display="inline" overflow="visible" visibility="visible" opacity="1" color-interpolation="sRGB" color-interpolation-filters="linearRGB" vector-effect="none" fill="#ffffff" fill-opacity="1" fill-rule="nonzero" stroke="none" stroke-width=".529167" stroke-linecap="round" stroke-linejoin="round" stroke-miterlimit="4" stroke-dasharray="none" stroke-dashoffset="0" stroke-opacity="1" color-rendering="auto" image-rendering="auto" shape-rendering="auto" text-rendering="auto" enable-background="accumulate" stop-color="#ffffff" stop-opacity="1" class="fill-000000 stop-color-000000"></path></svg>